<svg xmlns="http://www.w3.org/2000/svg" width="364.761" height="364.76"><defs><clipPath id="a" clipPathUnits="userSpaceOnUse"><path d="M-134.222 125.562H139.35v-273.57h-273.57Z"/></clipPath><clipPath id="b" clipPathUnits="userSpaceOnUse"><path d="M-115.77 101.429h273.571v-273.57h-273.57Z"/></clipPath><clipPath id="c" clipPathUnits="userSpaceOnUse"><path d="M-137.952 98.044H135.62v-273.57h-273.57Z"/></clipPath><clipPath id="d" clipPathUnits="userSpaceOnUse"><path d="M-87.487 142.77h273.571V-130.8h-273.57Z"/></clipPath><clipPath id="e" clipPathUnits="userSpaceOnUse"><path d="M-109.306 153.544h273.571v-273.57h-273.57Z"/></clipPath><clipPath id="f" clipPathUnits="userSpaceOnUse"><path d="M-107.294 133.084h273.571v-273.57h-273.57Z"/></clipPath><clipPath id="g" clipPathUnits="userSpaceOnUse"><path d="M-149.136 161.271h273.57v-273.57h-273.57Z"/></clipPath><clipPath id="h" clipPathUnits="userSpaceOnUse"><path d="M-168.399 155.294h273.571v-273.57h-273.57Z"/></clipPath><clipPath id="i" clipPathUnits="userSpaceOnUse"><path d="M-164.743 160.314h273.571v-273.57h-273.57Z"/></clipPath><clipPath id="j" clipPathUnits="userSpaceOnUse"><path d="M-168.399 147.395h273.571v-273.57h-273.57Z"/></clipPath><clipPath id="k" clipPathUnits="userSpaceOnUse"><path d="M-189.023 136.077h273.57v-273.57h-273.57Z"/></clipPath><clipPath id="l" clipPathUnits="userSpaceOnUse"><path d="M-168.399 152.756h273.571v-273.57h-273.57Z"/></clipPath><clipPath id="m" clipPathUnits="userSpaceOnUse"><path d="M-164.368 159.566h273.571v-273.57h-273.571Z"/></clipPath><clipPath id="n" clipPathUnits="userSpaceOnUse"><path d="M-187.055 157.464H86.516v-273.57h-273.57Z"/></clipPath><clipPath id="o" clipPathUnits="userSpaceOnUse"><path d="M-186.991 157.534h273.57v-273.57h-273.57Z"/></clipPath><clipPath id="p" clipPathUnits="userSpaceOnUse"><path d="M-123.073 146.47h273.571V-127.1h-273.571Z"/></clipPath><clipPath id="q" clipPathUnits="userSpaceOnUse"><path d="M-153.677 181.41h273.57V-92.16h-273.57Z"/></clipPath><clipPath id="r" clipPathUnits="userSpaceOnUse"><path d="M-167.178 181.388h273.57v-273.57h-273.57Z"/></clipPath><clipPath id="s" clipPathUnits="userSpaceOnUse"><path d="M-182.345 167.57h273.57V-106h-273.57Z"/></clipPath><clipPath id="t" clipPathUnits="userSpaceOnUse"><path d="M-193.447 171.224H80.124v-273.57h-273.57Z"/></clipPath></defs><path d="M0 0c.229.588.411 1.066.601 1.54 1.329 3.316 2.914 6.504 4.803 9.539 1.804 2.901 3.846 5.622 6.178 8.117 2.503 2.678 5.236 5.088 8.382 7 .06.036.113.085.14.202-.131-.045-.263-.086-.392-.134-1.945-.73-3.681-1.82-5.313-3.089-2.875-2.234-5.331-4.884-7.627-7.693a86.371 86.371 0 0 1-5.579-7.657C.097 6.137-.936 4.408-1.997 2.697c-.107-.172-.21-.346-.37-.609-.12.511-.243.934-.317 1.365-.228 1.349-.536 2.695-.636 4.055-.253 3.418.262 6.703 1.992 9.73 1.385 2.423 3.314 4.318 5.619 5.852 2.618 1.743 5.493 2.918 8.499 3.797 2.47.721 4.988 1.22 7.531 1.595 1.006.148 2.019.252 3.028.374.061.007.124.001.212.001.019-.424.062-.828.05-1.23-.053-1.819-.08-3.64-.194-5.455-.149-2.349-.37-4.695-1.006-6.974-.878-3.143-2.431-5.91-4.675-8.282C14.507 3.503 10.559 1.45 5.917.756 3.985.467 2.04.258 0 0" clip-path="url(#a)" style="fill:#0f4238;fill-opacity:1;fill-rule:nonzero;stroke:none" transform="matrix(1.33333 0 0 -1.33333 178.962 167.416)"/><path d="M0 0c.854-.109 1.681-.201 2.504-.321 2.293-.334 4.548-.833 6.733-1.616 2.164-.776 4.181-1.818 5.923-3.342.345-.302.66-.639 1-.971a16.742 16.742 0 0 1-2.069-6.025c-.326.295-.67.574-.977.89-1.564 1.612-3.001 3.36-4.899 4.615-.506.334-1.042.625-1.564.936a5.406 5.406 0 0 1-.057-.079c.299-.237.606-.464.894-.714 1.414-1.226 2.643-2.626 3.76-4.121.769-1.029 1.486-2.096 2.232-3.142.207-.289.279-.599.314-.954.135-1.373.306-2.742.48-4.111.072-.57.186-1.134.292-1.765-.454.065-.875.111-1.291.188-3.076.565-5.856 1.762-8.186 3.892-1.795 1.641-3.089 3.624-3.943 5.9C.46-8.913.231-7.004.123-5.076.041-3.634.013-2.188-.032-.743-.039-.511-.013-.277 0 0" clip-path="url(#b)" style="fill:#0f4238;fill-opacity:1;fill-rule:nonzero;stroke:none" transform="matrix(1.33333 0 0 -1.33333 154.36 135.238)"/><path d="M0 0a6.022 6.022 0 1 0-12.044 0A6.022 6.022 0 0 0 0 0" clip-path="url(#c)" style="fill:#e45e45;fill-opacity:1;fill-rule:nonzero;stroke:none" transform="matrix(1.33333 0 0 -1.33333 183.936 130.726)"/><path d="M0 0c-6.528 1.47-7.944 2.503-7.944 5.604 0 3.211 2.721 5.062 7.564 5.062 4.625 0 7.345-1.307 9.414-3.918h.272v2.014c0 2.991-3.374 6.094-9.415 6.094-7.726 0-12.461-4.299-12.461-9.904 0-4.734 3.102-6.801 9.523-8.217 6.802-1.47 8.598-2.829 8.598-6.203 0-3.265-1.796-5.388-7.455-5.388-4.245 0-7.998 1.851-9.958 4.517h-.272v-2.122c0-3.7 5.17-6.529 9.903-6.529 8.38 0 12.354 4.569 12.354 10.012C10.123-3.591 4.68-1.087 0 0" clip-path="url(#d)" style="fill:#30776a;fill-opacity:1;fill-rule:nonzero;stroke:none" transform="matrix(1.33333 0 0 -1.33333 116.649 190.36)"/><path d="M0 0v13.713c0 2.176-1.468 3.319-2.938 3.319H-4.19V-.599c0-4.951 2.504-7.346 7.401-7.346 1.469 0 2.448.925 2.448 2.503v1.361H3.864C1.525-4.081 0-3.102 0 0" clip-path="url(#e)" style="fill:#30776a;fill-opacity:1;fill-rule:nonzero;stroke:none" transform="matrix(1.33333 0 0 -1.33333 145.741 204.725)"/><path d="M0 0a2.81 2.81 0 0 1 2.829 2.829c0 1.578-1.252 2.938-2.829 2.938-1.525 0-2.829-1.36-2.829-2.938S-1.525 0 0 0" clip-path="url(#f)" style="fill:#30776a;fill-opacity:1;fill-rule:nonzero;stroke:none" transform="matrix(1.33333 0 0 -1.33333 143.058 177.445)"/><path d="M0 0h1.795v13.876c0 5.278 1.252 6.911 4.517 6.911 1.688 0 3.048-.599 3.809-1.252h.218v2.012c0 1.688-1.252 3.156-4.624 3.156-4.79 0-8.109-3.646-8.109-10.5V2.829C-2.394 1.196-1.523 0 0 0" clip-path="url(#g)" style="fill:#30776a;fill-opacity:1;fill-rule:nonzero;stroke:none" transform="matrix(1.33333 0 0 -1.33333 198.848 215.028)"/><path d="M0 0v2.537C-.912 1.715-2.308.252-4.189-1.852v-1.296c0-.406.054-.785.158-1.125C-2.264-2.607-.921-1.183 0 0" clip-path="url(#h)" style="fill:#30776a;fill-opacity:1;fill-rule:nonzero;stroke:none" transform="matrix(1.33333 0 0 -1.33333 224.532 207.058)"/><path d="m0 0-.005-.005C.401-.593 1.03-.957 1.861-.957h1.795V3.8C2.728 2.682 1.512 1.417 0 0" clip-path="url(#i)" style="fill:#30776a;fill-opacity:1;fill-rule:nonzero;stroke:none" transform="matrix(1.33333 0 0 -1.33333 219.657 213.752)"/><path d="M0 0c0 5.278 1.252 6.911 4.517 6.911 1.686 0 3.047-.599 3.809-1.252h.218v2.012c0 1.688-1.252 3.156-4.626 3.156-4.788 0-8.107-3.646-8.107-10.5v-7.891C-2.44-5.958-1.043-4.887 0-4.354z" clip-path="url(#j)" style="fill:#30776a;fill-opacity:1;fill-rule:nonzero;stroke:none" transform="matrix(1.33333 0 0 -1.33333 224.532 196.527)"/><path d="M0 0c-5.55 0-8.544-2.938-8.544-5.225v-2.012h.272c1.416 1.958 4.136 3.373 7.836 3.373 4.027 0 5.823-1.468 5.823-5.114v-1.143h-3.32c-7.4 0-11.535-2.884-11.535-8.216 0-2.185 1.085-4.007 2.794-5.291.862.925 1.804 1.948 2.845 3.094-.849.684-1.341 1.601-1.341 2.631 0 2.722 2.285 4.245 7.237 4.245h3.374v-3.047c0-3.592-1.523-5.06-5.279-5.06-.801 0-1.539.11-2.194.307l-2.476-2.739-.4-.462c1.451-.658 3.136-1.024 4.908-1.024 6.911 0 9.632 3.646 9.632 8.651v7.727C9.632-3.265 6.258 0 0 0" clip-path="url(#k)" style="fill:#30776a;fill-opacity:1;fill-rule:nonzero;stroke:none" transform="matrix(1.33333 0 0 -1.33333 252.031 181.436)"/><path d="M0 0v1.008C-1.043.474-2.44-.597-4.189-2.202V-4.39C-2.308-2.285-.912-.822 0 0" clip-path="url(#l)" style="fill:#30776a;fill-opacity:1;fill-rule:nonzero;stroke:none" transform="matrix(1.33333 0 0 -1.33333 224.532 203.675)"/><path d="M0 0c.086-.282.216-.53.369-.752l.006.005c1.512 1.416 2.728 2.682 3.656 3.8v1.22C3.11 3.09 1.766 1.665 0 0" clip-path="url(#m)" style="fill:#30776a;fill-opacity:1;fill-rule:nonzero;stroke:none" transform="matrix(1.33333 0 0 -1.33333 219.157 212.755)"/><path d="M0 0a3.672 3.672 0 0 0-1.831.885L-1.86.853A5.288 5.288 0 0 1-.063-.07Z" clip-path="url(#n)" style="fill:#30776a;fill-opacity:1;fill-rule:nonzero;stroke:none" transform="matrix(1.33333 0 0 -1.33333 249.406 209.953)"/><path d="M0 0a5.297 5.297 0 0 0-1.797.923 342.558 342.558 0 0 0-2.845-3.094 9.44 9.44 0 0 1 1.766-1.031l.401.462z" clip-path="url(#o)" style="fill:#30776a;fill-opacity:1;fill-rule:nonzero;stroke:none" transform="matrix(1.33333 0 0 -1.33333 249.321 210.046)"/><path d="M0 0c.163 3.21 2.666 6.639 6.802 6.639 3.862 0 5.713-2.396 5.713-5.062 0-1.849-1.034-2.394-6.965-2.503l-5.604-.108zm7.889-11.374C3.265-11.374.381-8.49 0-4.354h6.094c8.488 0 10.502 1.795 10.502 6.149 0 4.952-4.517 8.598-9.358 8.598-6.531 0-11.537-5.333-11.537-13.331 0-7.074 4.789-12.354 11.589-12.354 5.552 0 8.326 2.015 8.326 4.626v1.85h-.217c-1.414-1.36-3.701-2.558-7.51-2.558" clip-path="url(#p)" style="fill:#30776a;fill-opacity:1;fill-rule:nonzero;stroke:none" transform="matrix(1.33333 0 0 -1.33333 164.097 195.293)"/><path d="M0 0h-1.21c-3.677 0-5.71 2.056-5.71 5.801v9.981h1.279c1.279 0 1.941-.73 1.941-2.283V6.007c0-2.375.548-3.243 2.901-3.243H0c1.485 0 2.695.342 3.266.571V2.262C3.266.89 2.581 0 0 0" clip-path="url(#q)" style="fill:#e45e45;fill-opacity:1;fill-rule:nonzero;stroke:none" transform="matrix(1.33333 0 0 -1.33333 204.903 241.88)"/><path d="M0 0c-2.375 0-3.677 1.348-3.677 3.837v8.337h.868c1.37 0 2.193-.731 2.193-2.284V4.134c0-1.233.525-1.622 1.872-1.622h.571V1.85C1.827.526 1.302 0 0 0m-2.169 13.316c-.983 0-1.782.822-1.782 1.804 0 .982.799 1.782 1.782 1.782.981 0 1.803-.8 1.803-1.782s-.822-1.804-1.803-1.804" clip-path="url(#r)" style="fill:#e45e45;fill-opacity:1;fill-rule:nonzero;stroke:none" transform="matrix(1.33333 0 0 -1.33333 222.905 241.85)"/><path d="M0 0c-.48.16-1.028.273-1.782.273-1.256 0-2.192-.433-2.192-2.078v-1.096h3.517v-.845c0-1.096-1.165-1.736-2.192-1.736h-1.325v-8.222h-1.233c-.983 0-1.85.753-1.85 1.827v10.324c0 1.735 1.21 4.522 4.796 4.522 1.325 0 2.352-.731 2.352-1.941V0Z" clip-path="url(#s)" style="fill:#e45e45;fill-opacity:1;fill-rule:nonzero;stroke:none" transform="matrix(1.33333 0 0 -1.33333 243.127 223.426)"/><path d="M0 0c-1.485 0-2.512-1.21-2.581-2.626l-.023-.412h1.371c2.9 0 3.563.32 3.563 1.188C2.33-.616 1.416 0 0 0m-.571-5.207h-2.01C-2.352-6.76-.936-7.743.868-7.743c1.279 0 2.787.251 3.769 1.165h.114v-.959c0-1.576-1.073-2.787-4.454-2.787-3.061 0-6.053 2.422-6.053 6.19 0 4.111 2.513 6.692 6.03 6.692 2.559 0 4.934-1.827 4.934-4.773 0-2.262-1.713-2.992-5.779-2.992" clip-path="url(#t)" style="fill:#e45e45;fill-opacity:1;fill-rule:nonzero;stroke:none" transform="matrix(1.33333 0 0 -1.33333 257.93 228.299)"/></svg>